<?xml version="1.0" encoding="utf-8"?>
<!-- Generator: Adobe Illustrator 28.2.0, SVG Export Plug-In . SVG Version: 6.00 Build 0)  -->
<svg version="1.1" id="Layer_1" xmlns="http://www.w3.org/2000/svg" xmlns:xlink="http://www.w3.org/1999/xlink" x="0px" y="0px"
	 viewBox="0 0 5000 5000" style="enable-background:new 0 0 5000 5000;" xml:space="preserve">
<style type="text/css">
	.st0{fill:none;}
	.st1{fill:#FAA51D;}
	.st2{fill:url(#SVGID_1_);}
</style>
<pattern  width="650" height="650" patternUnits="userSpaceOnUse" id="New_Pattern" viewBox="0 -650 650 650" style="overflow:visible;">
	<g>
		<rect y="-650" class="st0" width="650" height="650"/>
		<path class="st1" d="M219.7-154.15c-1.12,1.43-3.17,1.7-4.6,0.57l-0.4-0.31c-1.42-1.12-1.68-3.17-0.57-4.6l229.91-295
			c1.12-1.43,3.17-1.7,4.6-0.57l0.4,0.31c1.42,1.12,1.68,3.17,0.57,4.6L219.7-154.15L219.7-154.15z"/>
		<g>
			<path class="st1" d="M105.86-588.68c0,0.02,0,0.03,0,0.05C105.86-588.64,105.86-588.66,105.86-588.68L105.86-588.68z"/>
			<path class="st1" d="M331.58-539.38c-0.75-0.59-0.91-1.31-0.43-2.16c6.84-12.22,14.01-24.25,21.48-36.08
				c4.17-6.64-2.02-10.98-8.24-12.17c-20.42-3.91-40.24-9.85-59.47-17.77c-4.6-1.89-8.18-2.27-11.21,1.78
				c-2.37,3.18-1.78,7.67,1.32,10.12l15.35,12.02c4.18,3.27,4.96,7.24,2.34,11.86L233.8-468.36c-0.45,0.73-0.32,1.37,0.39,1.87
				c12.29,8.99,25.41,16.44,39.4,22.38c1.14,0.48,2.45,0.04,3.06-1.03l43.81-77.49c0.41-0.79,1.03-0.94,1.76-0.42
				c19.41,13.17,24.52,30.39,15.3,51.62c-19.02,43.71-43.34,45.58-82.28,26.46c-20.45-10.06-51.08-32.01-44.34-58.88
				c6.66-26.61,27.84-57.91,60.28-46.65c0.98,0.36,2.07-0.11,2.55-1.06l6.54-13.55c0.44-0.94,0.19-1.61-0.75-2.04
				c-17.34-7.87-35.18-10.97-53.53-9.28c-40.24,3.68-64.74,46.59-47.08,83.02c8.84,18.19,22.21,33.47,40.15,45.87
				c0.68,0.49,0.94,1.13,0.76,1.98c-5.15,24.07-20.59,10.45-33.24,5.77c-3.74-1.37-7.87,0.68-9.08,4.48
				c-2.63,8.34,5.15,9.52,10.18,12.35c24.67,13.91,49.26,27.91,73.79,41.94c3.8,2.19,7.8,7.3,13.15,3.34
				c3.65-2.71,4.65-6.04,2.94-9.95c-0.1-0.22-0.24-0.4-0.42-0.54l-20.14-14.28c-1.41-1-1.89-2.82-1.17-4.39l6.42-13.68
				c0.59-1.28,1.55-1.63,2.82-1.01c34.31,16.52,86.35,20.07,106.28-17.59C393.64-481.24,362.69-515.65,331.58-539.38z"/>
			<path class="st1" d="M512.83-188.74c-21.84-52.4-86.1-75.48-143.5-51.56s-86.23,85.82-64.38,138.22
				c21.84,52.4,86.1,75.48,143.5,51.56S534.68-136.34,512.83-188.74 M449.09-96.07c0.56,1.08,1.79,1.6,2.96,1.25l16.68-5.07
				c0.16-0.04,0.31-0.04,0.48,0c2.92,0.74,4.35,2.73,4.28,5.95c-0.11,4.7-4.69,4.72-7.56,5.89c-18.45,7.63-36.9,15.3-55.35,23.05
				c-3.75,1.59-7.78,5.42-11.3,0.34c-1.6-2.32-0.96-5.51,1.43-7.01c8.09-5.04,22.37-7.77,11.16-21.06c-0.39-0.47-0.87-0.6-1.43-0.43
				c-14.68,4.65-29,5.5-42.98,2.57c-27.98-5.9-41.33-38.15-25.98-62.21c7-10.98,16.45-19.59,28.35-25.87
				c0.65-0.34,1.13-0.19,1.47,0.46l4.73,9.51c0.33,0.68,0.12,1.49-0.51,1.88c-20.33,13.24-12.01,38.61-0.04,53.84
				c12.08,15.39,37.59,7.78,52.06,0.72c27.52-13.47,37.01-27.86,20.83-57.39c-7.86-14.33-19.69-18.93-35.44-13.79
				c-0.6,0.19-0.79,0.59-0.53,1.16l24.3,57.99c0.34,0.8,0.02,1.73-0.75,2.16c-9.36,5.24-19.2,9.35-29.54,12.31
				c-0.58,0.18-1-0.02-1.21-0.59l-32.24-77.65c-1.44-3.46-4-4.75-7.63-3.82l-13.35,3.37c-2.71,0.67-5.47-0.95-6.22-3.64
				c-0.95-3.45,0.81-5.28,3.85-7.03c12.74-7.31,24.64-15.8,35.65-25.51c3.36-2.96,8.45-4.53,10.36,0.67
				c3.37,9.29,6.99,18.5,10.85,27.6c0.27,0.64,0.73,0.86,1.39,0.7c26.71-7.09,59.31-9.49,73.18,21.21
				c12.4,27.42-12.1,54.94-36.17,66.95c-0.89,0.44-1.11,1.12-0.66,2.01L449.09-96.07L449.09-96.07z"/>
		</g>
		<circle class="st1" cx="166.27" cy="-269.36" r="24"/>
		<circle class="st1" cx="139.39" cy="-346.28" r="6.97"/>
		<circle class="st1" cx="481.44" cy="-340.55" r="24"/>
		<circle class="st1" cx="537.17" cy="-400" r="6.97"/>
	</g>
</pattern>
<pattern  id="SVGID_1_" xlink:href="#New_Pattern" patternTransform="matrix(1 0 0 1 10 10)">
</pattern>
<rect x="107.81" y="24.06" class="st2" width="4452.77" height="4526.3"/>
</svg>
